<?xml version="1.0" encoding="utf-8"?>
<!-- Generator: Adobe Illustrator 19.0.0, SVG Export Plug-In . SVG Version: 6.00 Build 0)  -->
<svg version="1.1" id="LogoTG" xmlns="http://www.w3.org/2000/svg" xmlns:xlink="http://www.w3.org/1999/xlink" x="0px" y="0px"
	 viewBox="0 0 1500 360" style="enable-background:new 0 0 1500 360;" xml:space="preserve">
<style type="text/css">
	.st0{fill-rule:evenodd;clip-rule:evenodd;fill:#555555;}
	.st1{fill:#555555;}
	.st2{fill:#94CC28;}
</style>
<g id="EstudioNotarial">
	<path id="XMLID_99_" class="st0" d="M928.2,100.4h6.3v166.1h-6.3V100.4z"/>
	<path id="XMLID_97_" class="st1" d="M1047,163.5c0-1.7-0.8-2.5-2.5-2.5h-19.3v-15.1h16.5c1.6,0,2.4-0.8,2.4-2.5
		c0-1.7-0.8-2.6-2.4-2.6h-16.5v-12.5h19.3c1.7,0,2.5-0.9,2.5-2.6c0-1.7-0.8-2.6-2.5-2.6h-21.9c-1.8,0-2.8,0.9-2.8,2.6v37.9
		c0,1.8,0.9,2.6,2.8,2.6h21.9C1046.2,166.2,1047,165.3,1047,163.5L1047,163.5z"/>
	<path id="XMLID_95_" class="st1" d="M1093.9,162.8c2-2.2,2.9-4.9,2.9-8.2c0-1.3-0.2-2.6-0.7-3.7c-0.4-1.1-0.9-2.1-1.5-2.8
		c-0.6-0.7-1.4-1.4-2.5-2.1c-1.1-0.7-2-1.2-2.8-1.6c-0.8-0.3-1.8-0.8-3.1-1.3l-8.5-3.5c-1.7-0.7-2.9-1.5-3.6-2.3
		c-0.7-0.8-1.1-2-1.1-3.5c0-1.6,0.6-2.9,1.7-4s2.4-1.6,3.9-1.6h13.7c1.4,0,2.1-0.8,2.1-2.5c0-0.8-0.2-1.5-0.7-1.9
		c-0.5-0.5-0.9-0.7-1.4-0.7h-13.7c-3.4,0-6.1,1-8,3.1c-1.9,2-2.9,4.6-2.9,7.8c0,1.6,0.2,3,0.6,4.2c0.4,1.2,1.1,2.2,2.1,3
		s1.9,1.5,2.8,2c0.9,0.5,2.1,1,3.6,1.7l8.9,3.6c3.8,1.6,5.7,3.7,5.7,6.5c0,1.9-0.5,3.3-1.6,4.4c-1.1,1.1-2.4,1.6-4,1.6h-14.9
		c-0.4,0-0.9,0.2-1.4,0.7c-0.5,0.5-0.7,1.1-0.7,2c0,0.9,0.2,1.5,0.7,1.9c0.4,0.4,0.9,0.6,1.4,0.6h15
		C1089.2,166.2,1091.9,165.1,1093.9,162.8z"/>
	<path id="XMLID_93_" class="st1" d="M1147.9,125.7c0-1.7-0.8-2.6-2.5-2.6h-26.5c-1.6,0-2.4,0.9-2.4,2.6c0,1.7,0.8,2.6,2.4,2.6h10.6
		v35.7c0,0.9,0.2,1.6,0.6,2c0.4,0.4,1.1,0.6,2,0.6c1,0,1.7-0.2,2.1-0.6c0.4-0.4,0.6-1.1,0.6-2v-35.7h10.5
		C1147,128.2,1147.9,127.4,1147.9,125.7z"/>
	<path id="XMLID_91_" class="st1" d="M1171.8,162.9c2.2,2.2,5.1,3.2,8.6,3.2h6.3c3.5,0,6.3-1.1,8.6-3.3c2.3-2.2,3.4-5.4,3.4-9.5
		v-27.8c0-0.7-0.2-1.2-0.5-1.6c-0.3-0.4-0.7-0.7-1-0.8c-0.4-0.1-0.7-0.2-1.1-0.2c-1.8,0-2.6,0.9-2.6,2.6v28.1c0,2.2-0.6,4-1.9,5.4
		c-1.3,1.4-3,2-5.1,2h-5.6c-2.1,0-3.7-0.7-5-2.2c-1.3-1.4-1.9-3.2-1.9-5.3v-28.1c0-0.9-0.3-1.6-0.8-2c-0.5-0.4-1.2-0.6-1.8-0.6
		c-1.8,0-2.7,0.9-2.7,2.6v28.1C1168.4,157.7,1169.5,160.8,1171.8,162.9z"/>
	<path id="XMLID_88_" class="st1" d="M1241.7,161h-13.6v-32.8h13.9c2.3,0,4,0.6,5.2,1.9c1.2,1.3,1.7,3,1.7,5.3v18.2
		C1248.9,158.5,1246.5,161,1241.7,161L1241.7,161z M1251.1,162.8c2.2-2.2,3.2-5.4,3.2-9.5v-17.7c0-4.2-1-7.3-3-9.4
		c-2-2.1-4.8-3.1-8.3-3.1h-17.5c-1.8,0-2.8,0.9-2.8,2.6v37.9c0,1.8,0.9,2.6,2.8,2.6h17.3C1246.2,166.2,1249,165.1,1251.1,162.8z"/>
	<path id="XMLID_86_" class="st1" d="M1284.4,165.9c0.4-0.4,0.6-1.1,0.6-2v-38.6c0-0.9-0.2-1.6-0.6-2c-0.4-0.4-1.1-0.6-2-0.6
		c-1,0-1.7,0.2-2.1,0.6c-0.4,0.4-0.6,1.1-0.6,2v38.6c0,0.9,0.2,1.6,0.6,2c0.4,0.4,1.1,0.6,2.1,0.6
		C1283.3,166.5,1283.9,166.3,1284.4,165.9z"/>
	<path id="XMLID_83_" class="st1" d="M1313.7,126.5c-2.3,2.3-3.5,5.5-3.5,9.6v17.2c0,4.1,1.2,7.3,3.5,9.5c2.3,2.2,5.2,3.3,8.7,3.3
		h5.9c3.5,0,6.4-1.1,8.7-3.4c2.3-2.3,3.5-5.5,3.5-9.6v-17c0-4.2-1.1-7.5-3.3-9.7c-2.2-2.2-5.2-3.4-8.9-3.4h-5.8
		C1318.9,123.1,1316,124.2,1313.7,126.5z M1333.1,159.1c-1.3,1.4-3,2.1-5.3,2.1h-5.2c-2.2,0-3.9-0.7-5.2-2.1
		c-1.3-1.4-1.9-3.2-1.9-5.4v-18.1c0-2.3,0.6-4.1,1.9-5.5c1.3-1.4,3-2.1,5.2-2.1h5.2c2.3,0,4.1,0.7,5.3,2.1c1.3,1.4,1.9,3.2,1.9,5.5
		v18C1335.1,155.9,1334.4,157.7,1333.1,159.1z"/>
	<path id="XMLID_81_" class="st1" d="M1050.6,242v-38.2c0-1.7-0.9-2.6-2.8-2.6c-0.9,0-1.6,0.2-2,0.6c-0.4,0.4-0.6,1.1-0.6,2v31.8
		l-0.2,0.1l-17.7-32.2c-0.4-0.7-0.8-1.2-1.1-1.5c-0.4-0.3-0.9-0.5-1.6-0.5h-2.1c-1.8,0-2.7,0.9-2.7,2.6v38.2c0,0.9,0.2,1.5,0.6,1.9
		c0.4,0.4,1.1,0.5,2.1,0.5c1,0,1.6-0.2,2-0.5c0.4-0.3,0.6-1,0.6-1.9v-32.1h0.1l18,32.8c0.3,0.6,0.6,1,1,1.2c0.4,0.2,0.9,0.3,1.6,0.3
		h2C1049.7,244.6,1050.6,243.8,1050.6,242L1050.6,242z"/>
	<path id="XMLID_78_" class="st1" d="M1077.8,204.9c-2.3,2.3-3.5,5.5-3.5,9.6v17.2c0,4.1,1.2,7.3,3.5,9.5s5.2,3.3,8.7,3.3h5.9
		c3.5,0,6.4-1.1,8.7-3.4c2.3-2.3,3.5-5.5,3.5-9.6v-17c0-4.2-1.1-7.5-3.3-9.7c-2.2-2.2-5.2-3.4-8.9-3.4h-5.8
		C1083,201.5,1080.1,202.7,1077.8,204.9z M1097.2,237.5c-1.3,1.4-3,2.1-5.3,2.1h-5.2c-2.2,0-3.9-0.7-5.2-2.1
		c-1.3-1.4-1.9-3.2-1.9-5.4v-18.1c0-2.3,0.6-4.1,1.9-5.5c1.3-1.4,3-2.1,5.2-2.1h5.2c2.3,0,4.1,0.7,5.3,2.1c1.3,1.4,1.9,3.2,1.9,5.5
		v18C1099.2,234.3,1098.5,236.1,1097.2,237.5z"/>
	<path id="XMLID_76_" class="st1" d="M1156.2,204.1c0-1.7-0.8-2.6-2.5-2.6h-26.5c-1.6,0-2.4,0.9-2.4,2.6c0,1.7,0.8,2.6,2.4,2.6h10.6
		v35.7c0,0.9,0.2,1.6,0.6,2c0.4,0.4,1.1,0.6,2,0.6c1,0,1.7-0.2,2.1-0.6c0.4-0.4,0.6-1.1,0.6-2v-35.7h10.5
		C1155.3,206.7,1156.2,205.8,1156.2,204.1z"/>
	<path id="XMLID_73_" class="st1" d="M1201.8,244.8c0.4,0,0.8-0.1,1.3-0.2c1.1-0.4,1.7-1.1,1.7-2.1c0-0.3-0.1-0.6-0.2-1l-12.9-37.5
		c-0.3-0.9-0.7-1.5-1.1-1.9c-0.4-0.4-1-0.6-1.8-0.6h-1.9c-0.8,0-1.4,0.2-1.8,0.5c-0.4,0.4-0.7,1-1,1.9l-12.9,37.5
		c-0.1,0.2-0.1,0.5-0.1,1c0,1.2,0.6,1.9,1.9,2.2c0.4,0.1,0.8,0.2,1.2,0.2c1.1,0,1.9-0.6,2.3-1.7l2.8-8.4h17.3l2.8,8.4
		C1199.8,244.3,1200.6,244.8,1201.8,244.8L1201.8,244.8z M1187.9,209.1l6.9,20.5h-13.9l6.9-20.5L1187.9,209.1z"/>
	<path id="XMLID_70_" class="st1" d="M1248.7,208.6c1.3,1.3,2,3.2,2,5.8c0,2.2-0.5,4.1-1.6,5.7c-1.1,1.6-2.7,2.3-4.9,2.3h-12.5
		v-15.7h12.3C1245.8,206.7,1247.4,207.3,1248.7,208.6z M1252.6,204.9c-2.3-2.3-5.5-3.4-9.6-3.4h-13.9c-1.8,0-2.7,0.9-2.7,2.6v38.2
		c0,0.9,0.2,1.6,0.6,2c0.4,0.4,1,0.6,1.9,0.6c1,0,1.7-0.2,2.1-0.6c0.4-0.4,0.6-1.1,0.6-2v-14.7h9.6l8.7,15.9c0.6,1,1.4,1.5,2.4,1.5
		c0.8,0,1.5-0.3,2-0.8c0.5-0.5,0.8-1.1,0.8-1.9c0-0.5-0.1-0.9-0.4-1.4l-7.6-13.7c2.9-0.7,5.2-2.2,6.7-4.4c1.5-2.3,2.2-5.1,2.2-8.4
		C1256.1,210.4,1255,207.2,1252.6,204.9z"/>
	<path id="XMLID_68_" class="st1" d="M1284.8,244.4c0.4-0.4,0.6-1.1,0.6-2v-38.6c0-0.9-0.2-1.6-0.6-2c-0.4-0.4-1.1-0.6-2-0.6
		c-1,0-1.7,0.2-2.1,0.6c-0.4,0.4-0.6,1.1-0.6,2v38.6c0,0.9,0.2,1.6,0.6,2c0.4,0.4,1.1,0.6,2.1,0.6
		C1283.7,244.9,1284.4,244.7,1284.8,244.4z"/>
	<path id="XMLID_65_" class="st1" d="M1339.3,244.8c0.4,0,0.8-0.1,1.3-0.2c1.1-0.4,1.7-1.1,1.7-2.1c0-0.3-0.1-0.6-0.2-1l-12.9-37.5
		c-0.3-0.9-0.7-1.5-1.1-1.9c-0.4-0.4-1-0.6-1.8-0.6h-1.9c-0.8,0-1.4,0.2-1.8,0.5c-0.4,0.4-0.7,1-1,1.9l-12.9,37.5
		c-0.1,0.2-0.1,0.5-0.1,1c0,1.2,0.6,1.9,1.9,2.2c0.4,0.1,0.8,0.2,1.2,0.2c1.1,0,1.9-0.6,2.3-1.7l2.8-8.4h17.3l2.8,8.4
		C1337.3,244.3,1338.1,244.8,1339.3,244.8L1339.3,244.8z M1325.4,209.1l6.9,20.5h-13.9l6.9-20.5L1325.4,209.1z"/>
	<path id="XMLID_63_" class="st1" d="M1391,242c0-1.7-0.8-2.5-2.5-2.5h-19.2v-35.7c0-0.9-0.2-1.6-0.6-2c-0.4-0.4-1.1-0.6-2-0.6
		c-1.8,0-2.8,0.9-2.8,2.6V242c0,1.8,0.9,2.6,2.8,2.6h21.9C1390.2,244.6,1391,243.7,1391,242L1391,242z"/>
</g>
<g id="TurraGarat">
	<path id="XMLID_61_" class="st2" d="M186.8,121.4c3.9-0.6,5.8-5.5,5.8-10.1c0-4.5-1.7-8.5-5.2-8.5c-5.4,0-11.6,1.2-18,1.2
		c-10.3,0-21.5-0.8-32.3-0.8c-6.2,0-12.2,0.2-17.8,1c-4.6,0.6-9.9,8.3-9.9,13c0,1.8,1,3.2,3.5,3.2c5.6,0,11.2-0.8,17-0.8
		c6.2,0,12.4,0.2,18.6,0.8c-3.7,1.6-6.4,4.3-7.4,7.7c-13.4,47.9-22.5,103.6-22.5,110.1c0,5.1,4.6,7.9,8.7,7.9c3.1,0,6.2-1.6,7-5.3
		c5.6-26.6,12.2-57,27.1-115.4c0.4-1.2,0.4-3-0.2-4.1c5.4,0.4,10.8,0.8,15.5,0.8C180.1,122.2,183.6,122,186.8,121.4z"/>
	<path id="XMLID_59_" class="st2" d="M191.5,151.6c0.2-0.6,0.2-1.4,0.2-2c0-4.9-4.3-7.5-8.9-7.5c-4.8,0-10.1,2.8-11.2,9.1
		c-4.1,24.3-12.8,53.7-12.8,73.4c0,13,3.9,21.7,15.5,21.7c8.5,0,15.3-6.5,20.9-17c0.4,13.8,7.9,17,14.1,17
		c17.4,0,30.8-33.3,33.7-40.3c0.6-1.4,0.8-2.6,0.8-3.4c0-1.4-0.6-2-1.4-2c-1,0-2.3,1-3.5,3.4c-2.3,4.5-14.9,30.4-22.3,30.4
		c-1.9,0-2.7-1.8-2.7-5.5c0-14,17.4-70.8,17.4-78.9c0-5.3-4.3-8.3-8.9-8.3c-5,0-9.9,3-11.4,9.7c-9.3,42-17.2,81.1-29.2,81.1
		c-3.1,0-4.6-3-4.6-8.5C177.2,210.8,184.9,183.9,191.5,151.6z"/>
	<path id="XMLID_57_" class="st2" d="M250.9,218.7c5.4-34.3,22.3-63.3,29.4-63.3c1.4,0,2.1,1,2.1,2.4c0,6.3-7.7,15.6-7.7,26.8
		c0,12.2,7.9,16.2,16.1,16.2c6.8,0,12-3.4,16.1-8.9c-2.9,15.4-6.8,39.3-6.8,46c0,6.1,3.9,8.9,7.9,8.9c9.7,0,8.5-17.2,12.8-36.9
		c7-31.2,22.3-59,28.7-59c1.4,0,2.1,1,2.1,2.4c0,6.3-10.3,24.3-10.3,35.5c0,12.2,7.9,15.6,16.1,15.6c14.1,0,29.8-22.9,29.8-33.3
		c0-1.4-0.6-2.2-1.4-2.2c-3.1,0-13.4,27.6-22.8,27.6c-3.1,0-4.8-1.6-4.8-4.5c0-11.2,11-32,11-44.6c0-6.3-2.5-10.3-10.3-10.3
		c-11,0-21.3,14.8-29.4,34.1c4.8-17.4,5-17.8,5-18.5c0-4.5-6.2-8.9-11-8.9c-2.7,0-5,1.2-5.8,4.3c-5.6,18.5-9.5,45.6-21.3,45.6
		c-3.1,0-4.8-1.6-4.8-4.5c0-7.1,8.5-23.1,8.5-34.5c0-8.7-2.9-13.2-10.5-13.2c-10.1,0-19.2,11.4-26.7,27c1-3.6,3.5-8.7,3.5-12.2
		c0-5.7-5.4-8.9-10.1-8.9c-3.5,0-6.8,1.6-7.9,5.1c-9.7,31.6-16.3,77.3-16.3,85.4c0,6.1,3.9,8.9,7.9,8.9c3.5,0,7-2.2,7.7-6.7
		L250.9,218.7z"/>
	<path id="XMLID_36_" class="st2" d="M438.6,171.9c0.2-1,0.2-2,0.2-3c0-7.5-6.2-11.8-11.4-11.8h-1.2c-0.4-6.3-5.6-15-13.9-15
		c-23.8,0-42,45.8-42,76.6c0,15.8,4.8,27.6,15.9,27.6c6.6,0,14.5-8.7,21.3-22.5c-0.2,1.4-0.2,2.8-0.2,3.9c0,15.2,7.7,18.7,14.1,18.7
		c15.9,0,29-33.3,31.9-40.3c0.6-1.4,0.8-2.6,0.8-3.4c0-1.4-0.6-2-1.2-2c-1,0-2.7,1.2-3.7,3.4c-9.7,19.7-16.1,30.4-20.5,30.4
		c-1.9,0-2.9-2-2.9-5.1C425.8,219.6,433.1,197.7,438.6,171.9z M392.5,232.5c-2.5,0-3.5-3.9-3.5-9.9c0-21.3,12.6-68.7,26.5-68.7
		c5,0,5.6,4.3,5.6,7.7l-6.6,29.2C409.3,213.3,400.2,232.5,392.5,232.5z"/>
	<path id="XMLID_33_" class="st2" d="M514.1,312c12.2,0,28.1-12.4,36.6-44.6l5.2-19.9c11.6-9.7,22.5-22.5,30.4-41.6
		c0.4-1.2,0.8-2.4,0.8-3.2c0-1.4-0.6-2-1.4-2c-1,0-2.5,1-3.5,3.2c-6.2,12.6-14.5,22.5-23.6,30.8c1.9-9.5,5-24.7,5-28.6
		c0-6.1-4.3-8.9-8.9-8.9c-3.5,0-7,1.8-8.5,4.9c-5.8,15.6-13,31-22.8,31c-8.9,0-12.4-10.5-12.4-25.5c0-36.1,21.7-98.1,46.1-98.5
		c1.4,2.6,2.1,5.9,2.1,9.3c0,15.4-12.4,37.1-12.4,51.5c0,3.9,5.2,6.1,10.3,6.1c5,0,9.9-2,10.3-7.3c0.6-8.9,4.3-24.1,4.3-37.7
		c0-11.2-2.5-21.3-11.8-25.8c-1.7-2-5.6-3.4-9.7-3.4c-33.5,0-59.2,61-59.2,104c0,23.3,7.7,41.4,25.6,41.4
		c10.5,0,19.4-10.9,25.4-24.1c-1.2,7.3-2.9,14.4-6.4,29.4c-19.6,13.8-39.5,26-39.5,44.4C496.3,306.1,505.7,312,514.1,312z
		 M503.6,299.2c0-13.4,16.5-25.3,29.2-34.3c-6.8,31.8-17,40.8-23.6,40.8C505.2,305.7,503.6,302.1,503.6,299.2z"/>
	<path id="XMLID_30_" class="st2" d="M647.1,171.9c0.2-1,0.2-2,0.2-3c0-7.5-6.2-11.8-11.4-11.8h-1.2c-0.4-6.3-5.6-15-13.9-15
		c-23.8,0-42,45.8-42,76.6c0,15.8,4.8,27.6,15.9,27.6c6.6,0,14.5-8.7,21.3-22.5c-0.2,1.4-0.2,2.8-0.2,3.9c0,15.2,7.7,18.7,14.1,18.7
		c15.9,0,29-33.3,31.9-40.3c0.6-1.4,0.8-2.6,0.8-3.4c0-1.4-0.6-2-1.2-2c-1,0-2.7,1.2-3.7,3.4c-9.7,19.7-16.1,30.4-20.5,30.4
		c-1.9,0-2.9-2-2.9-5.1C634.3,219.6,641.5,197.7,647.1,171.9z M601,232.5c-2.5,0-3.5-3.9-3.5-9.9c0-21.3,12.6-68.7,26.5-68.7
		c5,0,5.6,4.3,5.6,7.7l-6.6,29.2C617.7,213.3,608.6,232.5,601,232.5z"/>
	<path id="XMLID_28_" class="st2" d="M669.7,218.7c5.4-34.3,22.3-63.3,29.4-63.3c1.4,0,2.1,1,2.1,2.4c0,6.3-9.1,19.9-9.1,31
		c0,12.2,7.9,15.6,16.1,15.6c14.3,0,26.3-18.2,29.4-29.8c0.4-1.4,1.2-5.7-1-5.7c-1.2,0-2.7,1.8-3.9,4.9c-3.5,7.9-12,22.7-18.8,22.7
		c-3.1,0-4.8-1.6-4.8-4.5c0-7.1,9.9-26,9.9-37.3c0-8.7-2.9-13.2-10.5-13.2c-10.1,0-19.2,11.4-26.7,27c1-3.6,3.5-8.7,3.5-12.2
		c0-5.7-5.4-8.9-10.1-8.9c-3.5,0-6.8,1.6-7.9,5.1c-9.3,31.2-16.3,71.2-16.3,85.4c0,6.1,3.9,8.9,7.9,8.9c3.5,0,7-2.2,7.7-6.7
		L669.7,218.7z"/>
	<path id="XMLID_25_" class="st2" d="M789,171.9c0.2-1,0.2-2,0.2-3c0-7.5-6.2-11.8-11.4-11.8h-1.2c-0.4-6.3-5.6-15-13.9-15
		c-23.8,0-42,45.8-42,76.6c0,15.8,4.8,27.6,15.9,27.6c6.6,0,14.5-8.7,21.3-22.5c-0.2,1.4-0.2,2.8-0.2,3.9c0,15.2,7.7,18.7,14.1,18.7
		c15.9,0,29-33.3,31.9-40.3c0.6-1.4,0.8-2.6,0.8-3.4c0-1.4-0.6-2-1.2-2c-1,0-2.7,1.2-3.7,3.4c-9.7,19.7-16.1,30.4-20.5,30.4
		c-1.9,0-2.9-2-2.9-5.1C776.2,219.6,783.4,197.7,789,171.9z M742.9,232.5c-2.5,0-3.5-3.9-3.5-9.9c0-21.3,12.6-68.7,26.5-68.7
		c5,0,5.6,4.3,5.6,7.7l-6.6,29.2C759.6,213.3,750.5,232.5,742.9,232.5z"/>
	<path id="XMLID_23_" class="st2" d="M801.2,142.1c-2.3,0-3.7,3.2-3.7,6.3c0,2.6,1,5.3,3.5,5.5l6.6,0.6c-7.2,29-12.4,57.6-12.4,71
		c0,15.2,6.8,20.9,14.9,20.9c17.4,0,31.6-33.3,34.5-40.3c0.6-1.4,0.8-2.6,0.8-3.4c0-1.4-0.6-2.2-1.4-2.2c-1,0-2.1,1.2-3.5,3.6
		c-5.8,9.1-16.3,31.4-24.4,31.4c-3.1,0-4.3-3.2-4.3-8.5c0-14.6,9.7-46,17.6-72.8c15.1-1.6,22.8-3.6,22.8-6.5c0-2.8-9.5-3.4-19.6-4.3
		c2.3-8.1,5.4-17,5.4-22.1c0-6.9-5.6-10.1-10.8-10.1c-3.9,0-7.4,1.6-8.5,5.1c-2.7,8.3-5.2,17-7.7,26.2
		C807.6,142.1,804.3,142.1,801.2,142.1z"/>
</g>
</svg>
