<?xml version="1.0" encoding="utf-8"?>
<!-- Generator: Adobe Illustrator 19.0.0, SVG Export Plug-In . SVG Version: 6.00 Build 0)  -->
<svg version="1.1" id="Capa_1" xmlns="http://www.w3.org/2000/svg" xmlns:xlink="http://www.w3.org/1999/xlink" x="0px" y="0px"
	 viewBox="0 0 830 360" style="enable-background:new 0 0 830 360;" xml:space="preserve">
<style type="text/css">
	.st0{fill:#d0f48a;}
	.st1{fill:#ffffff;}
</style>
<g id="Turra_Garat">
	<path id="XMLID_97_" class="st0" d="M747.9,163.3c-2.4,0-3.9,3.4-3.9,6.5c0,2.7,1.1,5.5,3.7,5.7l6.9,0.6
		c-7.5,30.2-12.9,59.9-12.9,73.8c0,15.8,7.1,21.7,15.5,21.7c18.1,0,32.9-34.6,35.9-42c0.6-1.5,0.9-2.7,0.9-3.6
		c0-1.5-0.6-2.3-1.5-2.3c-1.1,0-2.2,1.3-3.7,3.8c-6,9.5-17,32.7-25.4,32.7c-3.2,0-4.5-3.4-4.5-8.9c0-15.2,10.1-47.9,18.3-75.7
		c15.7-1.7,23.7-3.8,23.7-6.8c0-3-9.9-3.6-20.4-4.4c2.4-8.4,5.6-17.7,5.6-23c0-7.2-5.8-10.5-11.2-10.5c-4.1,0-7.7,1.7-8.8,5.3
		c-2.8,8.7-5.4,17.7-8,27.2C754.6,163.3,751.2,163.3,747.9,163.3z"/>
	<path id="XMLID_95_" class="st0" d="M108.5,141.8c4.1-0.6,6-5.7,6-10.5c0-4.6-1.7-8.9-5.4-8.9c-5.6,0-12.1,1.3-18.7,1.3
		c-10.8,0-22.4-0.8-33.6-0.8c-6.5,0-12.7,0.2-18.5,1.1c-4.7,0.6-10.3,8.7-10.3,13.5c0,1.9,1.1,3.4,3.7,3.4c5.8,0,11.6-0.8,17.6-0.8
		c6.5,0,12.9,0.2,19.4,0.8c-3.9,1.7-6.7,4.4-7.7,8c-14,49.8-23.5,107.8-23.5,114.6c0,5.3,4.7,8.2,9,8.2c3.2,0,6.5-1.7,7.3-5.5
		c5.8-27.6,12.7-59.3,28.2-120.1c0.4-1.3,0.4-3.2-0.2-4.2c5.6,0.4,11.2,0.8,16.1,0.8C101.6,142.6,105.3,142.4,108.5,141.8z"/>
	<path id="XMLID_93_" class="st0" d="M113.5,173.2c0.2-0.6,0.2-1.5,0.2-2.1c0-5.1-4.5-7.8-9.3-7.8c-5,0-10.5,3-11.6,9.5
		c-4.3,25.3-13.3,55.9-13.3,76.4c0,13.5,4.1,22.6,16.1,22.6c8.8,0,15.9-6.8,21.7-17.7c0.4,14.3,8.2,17.7,14.6,17.7
		c18.1,0,32.1-34.6,35.1-42c0.6-1.5,0.9-2.7,0.9-3.6c0-1.5-0.6-2.1-1.5-2.1c-1.1,0-2.4,1.1-3.7,3.6c-2.4,4.6-15.5,31.6-23.2,31.6
		c-1.9,0-2.8-1.9-2.8-5.7c0-14.6,18.1-73.6,18.1-82.1c0-5.5-4.5-8.7-9.3-8.7c-5.2,0-10.3,3.2-11.8,10.1
		c-9.7,43.7-17.9,84.4-30.3,84.4c-3.2,0-4.7-3.2-4.7-8.9C98.6,234.8,106.6,206.8,113.5,173.2z"/>
	<path id="XMLID_91_" class="st0" d="M175.3,243.1c5.6-35.7,23.2-65.8,30.6-65.8c1.5,0,2.2,1.1,2.2,2.5c0,6.5-8,16.2-8,27.9
		c0,12.7,8.2,16.9,16.8,16.9c7.1,0,12.5-3.6,16.8-9.3c-3,16-7.1,40.9-7.1,47.9c0,6.3,4.1,9.3,8.2,9.3c10.1,0,8.8-17.9,13.3-38.4
		c7.3-32.5,23.2-61.4,29.9-61.4c1.5,0,2.2,1.1,2.2,2.5c0,6.5-10.8,25.3-10.8,36.9c0,12.7,8.2,16.2,16.8,16.2c14.6,0,31-23.8,31-34.6
		c0-1.5-0.6-2.3-1.5-2.3c-3.2,0-14,28.7-23.7,28.7c-3.2,0-5-1.7-5-4.6c0-11.6,11.4-33.3,11.4-46.4c0-6.5-2.6-10.8-10.8-10.8
		c-11.4,0-22.2,15.4-30.6,35.4c5-18.1,5.2-18.6,5.2-19.2c0-4.6-6.5-9.3-11.4-9.3c-2.8,0-5.2,1.3-6,4.4c-5.8,19.2-9.9,47.5-22.2,47.5
		c-3.2,0-5-1.7-5-4.6c0-7.4,8.8-24.1,8.8-35.9c0-9.1-3-13.7-11-13.7c-10.5,0-20,11.8-27.8,28.1c1.1-3.8,3.7-9.1,3.7-12.7
		c0-5.9-5.6-9.3-10.5-9.3c-3.7,0-7.1,1.7-8.2,5.3c-10.1,32.9-17,80.4-17,88.8c0,6.3,4.1,9.3,8.2,9.3c3.7,0,7.3-2.3,8-7L175.3,243.1z
		"/>
	<path id="XMLID_88_" class="st0" d="M370.7,194.3c0.2-1.1,0.2-2.1,0.2-3.2c0-7.8-6.5-12.2-11.8-12.2h-1.3
		c-0.4-6.5-5.8-15.6-14.4-15.6c-24.8,0-43.7,47.7-43.7,79.8c0,16.5,5,28.7,16.6,28.7c6.9,0,15.1-9.1,22.2-23.4c-0.2,1.5-0.2,3-0.2,4
		c0,15.8,8,19.4,14.6,19.4c16.6,0,30.1-34.6,33.1-42c0.6-1.5,0.9-2.7,0.9-3.6c0-1.5-0.6-2.1-1.3-2.1c-1.1,0-2.8,1.3-3.9,3.6
		c-10.1,20.5-16.8,31.6-21.3,31.6c-1.9,0-3-2.1-3-5.3C357.3,243.9,364.9,221.1,370.7,194.3z M322.7,257.4c-2.6,0-3.7-4-3.7-10.3
		c0-22.2,13.1-71.5,27.5-71.5c5.2,0,5.8,4.4,5.8,8l-6.9,30.4C340.1,237.4,330.6,257.4,322.7,257.4z"/>
	<path id="XMLID_85_" class="st0" d="M449.2,340.1c12.7,0,29.3-12.9,38.1-46.4l5.4-20.7c12.1-10.1,23.5-23.4,31.6-43.3
		c0.4-1.3,0.9-2.5,0.9-3.4c0-1.5-0.6-2.1-1.5-2.1c-1.1,0-2.6,1.1-3.7,3.4c-6.5,13.1-15.1,23.4-24.5,32.1c1.9-9.9,5.2-25.7,5.2-29.8
		c0-6.3-4.5-9.3-9.3-9.3c-3.7,0-7.3,1.9-8.8,5.1c-6,16.2-13.6,32.3-23.7,32.3c-9.3,0-12.9-11-12.9-26.6c0-37.6,22.6-102.1,48-102.5
		c1.5,2.7,2.2,6.1,2.2,9.7c0,16-12.9,38.6-12.9,53.6c0,4,5.4,6.3,10.8,6.3c5.2,0,10.3-2.1,10.8-7.6c0.6-9.3,4.5-25.1,4.5-39.2
		c0-11.6-2.6-22.2-12.3-26.8c-1.7-2.1-5.8-3.6-10.1-3.6c-34.9,0-61.6,63.5-61.6,108.2c0,24.3,8,43,26.7,43c11,0,20.2-11.4,26.5-25.1
		c-1.3,7.6-3,15-6.7,30.6c-20.4,14.3-41.1,27-41.1,46.2C430.7,334,440.4,340.1,449.2,340.1z M438.2,326.8
		c0-13.9,17.2-26.4,30.3-35.7c-7.1,33.1-17.6,42.4-24.5,42.4C440,333.6,438.2,329.8,438.2,326.8z"/>
	<path id="XMLID_82_" class="st0" d="M587.6,194.3c0.2-1.1,0.2-2.1,0.2-3.2c0-7.8-6.5-12.2-11.8-12.2h-1.3
		c-0.4-6.5-5.8-15.6-14.4-15.6c-24.8,0-43.7,47.7-43.7,79.8c0,16.5,5,28.7,16.6,28.7c6.9,0,15.1-9.1,22.2-23.4c-0.2,1.5-0.2,3-0.2,4
		c0,15.8,8,19.4,14.6,19.4c16.6,0,30.1-34.6,33.1-42c0.6-1.5,0.9-2.7,0.9-3.6c0-1.5-0.6-2.1-1.3-2.1c-1.1,0-2.8,1.3-3.9,3.6
		c-10.1,20.5-16.8,31.6-21.3,31.6c-1.9,0-3-2.1-3-5.3C574.3,243.9,581.8,221.1,587.6,194.3z M539.6,257.4c-2.6,0-3.7-4-3.7-10.3
		c0-22.2,13.1-71.5,27.5-71.5c5.2,0,5.8,4.4,5.8,8l-6.9,30.4C557,237.4,547.6,257.4,539.6,257.4z"/>
	<path id="XMLID_80_" class="st0" d="M611.1,243.1c5.6-35.7,23.2-65.8,30.6-65.8c1.5,0,2.2,1.1,2.2,2.5c0,6.5-9.5,20.7-9.5,32.3
		c0,12.7,8.2,16.2,16.8,16.2c14.9,0,27.3-19,30.6-31c0.4-1.5,1.3-5.9-1.1-5.9c-1.3,0-2.8,1.9-4.1,5.1c-3.7,8.2-12.5,23.6-19.6,23.6
		c-3.2,0-5-1.7-5-4.6c0-7.4,10.3-27,10.3-38.8c0-9.1-3-13.7-11-13.7c-10.5,0-20,11.8-27.8,28.1c1.1-3.8,3.7-9.1,3.7-12.7
		c0-5.9-5.6-9.3-10.5-9.3c-3.7,0-7.1,1.7-8.2,5.3c-9.7,32.5-17,74.1-17,88.8c0,6.3,4.1,9.3,8.2,9.3c3.7,0,7.3-2.3,8-7L611.1,243.1z"
		/>
	<path id="XMLID_77_" class="st0" d="M735.2,194.3c0.2-1.1,0.2-2.1,0.2-3.2c0-7.8-6.5-12.2-11.8-12.2h-1.3
		c-0.4-6.5-5.8-15.6-14.4-15.6c-24.8,0-43.7,47.7-43.7,79.8c0,16.5,5,28.7,16.6,28.7c6.9,0,15.1-9.1,22.2-23.4c-0.2,1.5-0.2,3-0.2,4
		c0,15.8,8,19.4,14.6,19.4c16.6,0,30.1-34.6,33.1-42c0.6-1.5,0.9-2.7,0.9-3.6c0-1.5-0.6-2.1-1.3-2.1c-1.1,0-2.8,1.3-3.9,3.6
		c-10.1,20.5-16.8,31.6-21.3,31.6c-1.9,0-3-2.1-3-5.3C721.9,243.9,729.4,221.1,735.2,194.3z M687.3,257.4c-2.6,0-3.7-4-3.7-10.3
		c0-22.2,13.1-71.5,27.5-71.5c5.2,0,5.8,4.4,5.8,8l-6.9,30.4C704.7,237.4,695.2,257.4,687.3,257.4z"/>
</g>
<g id="Estudio_Notarial">
	<path id="XMLID_75_" class="st1" d="M92.8,73.6c0-1.2-0.6-1.8-1.8-1.8h-14v-11h12c1.2,0,1.7-0.6,1.7-1.8c0-1.3-0.6-1.9-1.7-1.9h-12
		v-9.1h14c1.2,0,1.8-0.6,1.8-1.9c0-1.3-0.6-1.9-1.8-1.9H75c-1.3,0-2,0.6-2,1.9v27.5c0,1.3,0.7,1.9,2,1.9h16
		C92.2,75.5,92.8,74.9,92.8,73.6L92.8,73.6z"/>
	<path id="XMLID_73_" class="st1" d="M135.9,73.1c1.4-1.6,2.1-3.6,2.1-5.9c0-1-0.2-1.9-0.5-2.7c-0.3-0.8-0.7-1.5-1.1-2
		c-0.4-0.5-1-1-1.8-1.6c-0.8-0.5-1.5-0.9-2-1.1c-0.6-0.2-1.3-0.6-2.3-0.9l-6.2-2.6c-1.2-0.5-2.1-1.1-2.6-1.7
		c-0.5-0.6-0.8-1.5-0.8-2.5c0-1.2,0.4-2.1,1.2-2.9c0.8-0.8,1.8-1.2,2.9-1.2h10c1,0,1.5-0.6,1.5-1.8c0-0.6-0.2-1.1-0.5-1.4
		c-0.3-0.3-0.7-0.5-1-0.5h-10c-2.5,0-4.4,0.7-5.8,2.2c-1.4,1.5-2.1,3.4-2.1,5.7c0,1.2,0.2,2.2,0.5,3.1c0.3,0.9,0.8,1.6,1.5,2.2
		c0.7,0.6,1.4,1.1,2,1.4c0.6,0.3,1.5,0.8,2.6,1.2l6.5,2.7c2.7,1.1,4.1,2.7,4.1,4.7c0,1.4-0.4,2.4-1.2,3.2c-0.8,0.8-1.7,1.2-2.9,1.2
		h-10.8c-0.3,0-0.6,0.2-1,0.5c-0.3,0.3-0.5,0.8-0.5,1.4c0,0.6,0.2,1.1,0.5,1.4c0.3,0.3,0.7,0.4,1,0.4h10.9
		C132.6,75.5,134.5,74.7,135.9,73.1z"/>
	<path id="XMLID_71_" class="st1" d="M184.3,46c0-1.3-0.6-1.9-1.8-1.9h-19.3c-1.2,0-1.8,0.6-1.8,1.9c0,1.3,0.6,1.9,1.8,1.9h7.7v25.9
		c0,0.7,0.1,1.2,0.4,1.5c0.3,0.3,0.8,0.4,1.5,0.4c0.7,0,1.2-0.1,1.5-0.4c0.3-0.3,0.5-0.8,0.5-1.5V47.9h7.7
		C183.7,47.9,184.3,47.3,184.3,46z"/>
	<path id="XMLID_69_" class="st1" d="M210.8,73.2c1.6,1.6,3.7,2.3,6.3,2.3h4.6c2.5,0,4.6-0.8,6.3-2.4c1.6-1.6,2.5-3.9,2.5-6.9V45.9
		c0-0.5-0.1-0.9-0.4-1.2c-0.2-0.3-0.5-0.5-0.7-0.6c-0.3-0.1-0.5-0.1-0.8-0.1c-1.3,0-1.9,0.6-1.9,1.9v20.4c0,1.6-0.5,2.9-1.4,3.9
		c-0.9,1-2.2,1.5-3.7,1.5h-4.1c-1.5,0-2.7-0.5-3.7-1.6c-0.9-1-1.4-2.3-1.4-3.8V45.9c0-0.7-0.2-1.2-0.6-1.5c-0.4-0.3-0.8-0.4-1.3-0.4
		c-1.3,0-2,0.6-2,1.9v20.4C208.4,69.3,209.2,71.6,210.8,73.2z"/>
	<path id="XMLID_66_" class="st1" d="M270.8,71.7h-9.9V47.9H271c1.7,0,2.9,0.5,3.8,1.4c0.8,0.9,1.3,2.2,1.3,3.9v13.2
		C276.1,69.9,274.3,71.7,270.8,71.7L270.8,71.7z M277.7,73.1c1.6-1.6,2.3-3.9,2.3-6.9V53.3c0-3-0.7-5.3-2.2-6.8
		c-1.5-1.5-3.5-2.3-6-2.3H259c-1.3,0-2,0.6-2,1.9v27.5c0,1.3,0.7,1.9,2,1.9h12.6C274.1,75.5,276.1,74.7,277.7,73.1z"/>
	<path id="XMLID_64_" class="st1" d="M311,75.3c0.3-0.3,0.5-0.8,0.5-1.5V45.8c0-0.7-0.2-1.2-0.5-1.5c-0.3-0.3-0.8-0.4-1.5-0.4
		c-0.7,0-1.2,0.1-1.5,0.4c-0.3,0.3-0.5,0.8-0.5,1.5v28.1c0,0.7,0.2,1.2,0.5,1.5c0.3,0.3,0.8,0.4,1.5,0.4
		C310.2,75.7,310.7,75.6,311,75.3z"/>
	<path id="XMLID_61_" class="st1" d="M341.4,46.6c-1.7,1.7-2.5,4-2.5,7v12.5c0,3,0.8,5.3,2.5,6.9s3.8,2.4,6.3,2.4h4.3
		c2.5,0,4.6-0.8,6.3-2.5c1.7-1.7,2.5-4,2.5-7V53.6c0-3.1-0.8-5.4-2.4-7c-1.6-1.6-3.8-2.4-6.4-2.4h-4.2
		C345.2,44.2,343.1,45,341.4,46.6z M355.6,70.4c-0.9,1-2.2,1.5-3.8,1.5h-3.8c-1.6,0-2.9-0.5-3.8-1.5c-0.9-1-1.4-2.3-1.4-3.9V53.3
		c0-1.7,0.5-3,1.4-4c0.9-1,2.2-1.5,3.8-1.5h3.8c1.7,0,2.9,0.5,3.9,1.5c0.9,1,1.4,2.3,1.4,4v13.1C357,68,356.5,69.3,355.6,70.4z"/>
	<path id="XMLID_59_" class="st1" d="M444.9,73.6V45.8c0-1.3-0.7-1.9-2-1.9c-0.7,0-1.2,0.1-1.5,0.4c-0.3,0.3-0.5,0.8-0.5,1.5v23.1
		l-0.2,0L428,45.6c-0.3-0.5-0.6-0.8-0.8-1.1c-0.3-0.2-0.7-0.3-1.2-0.3h-1.5c-1.3,0-1.9,0.6-1.9,1.9v27.8c0,0.7,0.2,1.1,0.5,1.4
		c0.3,0.3,0.8,0.4,1.5,0.4c0.7,0,1.2-0.1,1.5-0.4c0.3-0.3,0.4-0.7,0.4-1.4V50.5h0.1l13.1,23.8c0.2,0.4,0.5,0.7,0.7,0.9
		c0.3,0.2,0.6,0.2,1.2,0.2h1.4C444.3,75.5,444.9,74.9,444.9,73.6L444.9,73.6z"/>
	<path id="XMLID_56_" class="st1" d="M473.8,46.6c-1.7,1.7-2.5,4-2.5,7v12.5c0,3,0.8,5.3,2.5,6.9c1.7,1.6,3.8,2.4,6.3,2.4h4.3
		c2.5,0,4.6-0.8,6.3-2.5c1.7-1.7,2.5-4,2.5-7V53.6c0-3.1-0.8-5.4-2.4-7c-1.6-1.6-3.8-2.4-6.4-2.4h-4.2
		C477.6,44.2,475.5,45,473.8,46.6z M488,70.4c-0.9,1-2.2,1.5-3.8,1.5h-3.8c-1.6,0-2.9-0.5-3.8-1.5c-0.9-1-1.4-2.3-1.4-3.9V53.3
		c0-1.7,0.5-3,1.4-4c0.9-1,2.2-1.5,3.8-1.5h3.8c1.7,0,2.9,0.5,3.9,1.5c0.9,1,1.4,2.3,1.4,4v13.1C489.4,68,488.9,69.3,488,70.4z"/>
	<path id="XMLID_36_" class="st1" d="M539.9,46c0-1.3-0.6-1.9-1.8-1.9h-19.3c-1.2,0-1.8,0.6-1.8,1.9c0,1.3,0.6,1.9,1.8,1.9h7.7v25.9
		c0,0.7,0.1,1.2,0.4,1.5c0.3,0.3,0.8,0.4,1.5,0.4c0.7,0,1.2-0.1,1.5-0.4c0.3-0.3,0.5-0.8,0.5-1.5V47.9h7.7
		C539.3,47.9,539.9,47.3,539.9,46z"/>
	<path id="XMLID_33_" class="st1" d="M582.3,75.6c0.3,0,0.6,0,0.9-0.1c0.8-0.3,1.2-0.8,1.2-1.5c0-0.2,0-0.5-0.1-0.7l-9.4-27.3
		c-0.2-0.7-0.5-1.1-0.8-1.4c-0.3-0.3-0.7-0.4-1.3-0.4h-1.4c-0.6,0-1.1,0.1-1.3,0.4c-0.3,0.3-0.5,0.7-0.8,1.4l-9.4,27.3
		c-0.1,0.2-0.1,0.4-0.1,0.7c0,0.8,0.5,1.4,1.4,1.6c0.3,0.1,0.6,0.1,0.9,0.1c0.8,0,1.4-0.4,1.7-1.2l2.1-6.1h12.6l2,6.1
		C580.8,75.2,581.4,75.6,582.3,75.6L582.3,75.6z M572.2,49.7l5,14.9h-10.1L572.2,49.7L572.2,49.7z"/>
	<path id="XMLID_30_" class="st1" d="M625.5,49.3c1,0.9,1.4,2.3,1.4,4.2c0,1.6-0.4,3-1.2,4.1c-0.8,1.1-2,1.7-3.6,1.7h-9.1V47.9h9
		C623.4,47.9,624.6,48.4,625.5,49.3z M628.3,46.6c-1.7-1.7-4-2.5-7-2.5h-10.1c-1.3,0-2,0.6-2,1.9v27.8c0,0.7,0.1,1.2,0.4,1.5
		c0.3,0.3,0.7,0.4,1.4,0.4c0.7,0,1.2-0.1,1.5-0.4c0.3-0.3,0.5-0.8,0.5-1.5V63.1h7l6.3,11.6c0.4,0.7,1,1.1,1.7,1.1
		c0.6,0,1.1-0.2,1.5-0.6c0.4-0.4,0.6-0.8,0.6-1.4c0-0.3-0.1-0.7-0.3-1l-5.5-10c2.1-0.5,3.8-1.6,4.8-3.2c1.1-1.6,1.6-3.7,1.6-6.1
		C630.9,50.6,630,48.3,628.3,46.6z"/>
	<path id="XMLID_28_" class="st1" d="M660.9,75.3c0.3-0.3,0.5-0.8,0.5-1.5V45.8c0-0.7-0.2-1.2-0.5-1.5c-0.3-0.3-0.8-0.4-1.5-0.4
		c-0.7,0-1.2,0.1-1.5,0.4c-0.3,0.3-0.5,0.8-0.5,1.5v28.1c0,0.7,0.2,1.2,0.5,1.5c0.3,0.3,0.8,0.4,1.5,0.4
		C660.1,75.7,660.6,75.6,660.9,75.3z"/>
	<path id="XMLID_25_" class="st1" d="M709.6,75.6c0.3,0,0.6,0,0.9-0.1c0.8-0.3,1.2-0.8,1.2-1.5c0-0.2,0-0.5-0.1-0.7l-9.4-27.3
		c-0.2-0.7-0.5-1.1-0.8-1.4c-0.3-0.3-0.7-0.4-1.3-0.4h-1.4c-0.6,0-1.1,0.1-1.3,0.4c-0.3,0.3-0.5,0.7-0.8,1.4l-9.4,27.3
		c-0.1,0.2-0.1,0.4-0.1,0.7c0,0.8,0.5,1.4,1.4,1.6c0.3,0.1,0.6,0.1,0.9,0.1c0.8,0,1.4-0.4,1.7-1.2l2.1-6.1h12.6l2,6.1
		C708.2,75.2,708.8,75.6,709.6,75.6L709.6,75.6z M699.5,49.7l5,14.9h-10.1L699.5,49.7L699.5,49.7z"/>
	<path id="XMLID_23_" class="st1" d="M756.3,73.6c0-1.2-0.6-1.8-1.8-1.8h-14V45.8c0-0.7-0.2-1.2-0.5-1.5c-0.3-0.3-0.8-0.4-1.5-0.4
		c-1.3,0-2,0.6-2,1.9v27.8c0,1.3,0.7,1.9,2,1.9h15.9C755.7,75.5,756.3,74.9,756.3,73.6L756.3,73.6z"/>
</g>
</svg>
